<svg width="178" height="31" viewBox="0 0 178 31" fill="none" xmlns="http://www.w3.org/2000/svg">
<path d="M0.528409 30V0.90909H12.1761C14.3163 0.90909 16.1013 1.22633 17.5312 1.8608C18.9612 2.49527 20.036 3.37595 20.7557 4.50284C21.4754 5.62027 21.8352 6.90814 21.8352 8.36648C21.8352 9.50284 21.608 10.5019 21.1534 11.3636C20.6989 12.2159 20.0739 12.9167 19.2784 13.4659C18.4924 14.0057 17.5928 14.3892 16.5795 14.6165V14.9006C17.6875 14.9479 18.7244 15.2604 19.6903 15.8381C20.6657 16.4157 21.4564 17.2254 22.0625 18.267C22.6686 19.2992 22.9716 20.5303 22.9716 21.9602C22.9716 23.5038 22.5881 24.8816 21.821 26.0938C21.0634 27.2964 19.9413 28.2481 18.4545 28.9489C16.9678 29.6496 15.1354 30 12.9574 30H0.528409ZM6.67898 24.9716H11.6932C13.4072 24.9716 14.6572 24.6449 15.4432 23.9915C16.2292 23.3286 16.6222 22.4479 16.6222 21.3494C16.6222 20.5445 16.428 19.8343 16.0398 19.2188C15.6515 18.6032 15.0975 18.1203 14.3778 17.7699C13.6676 17.4195 12.8201 17.2443 11.8352 17.2443H6.67898V24.9716ZM6.67898 13.0824H11.2386C12.0814 13.0824 12.8295 12.9356 13.483 12.642C14.1458 12.339 14.6667 11.9129 15.0455 11.3636C15.4337 10.8144 15.6278 10.1562 15.6278 9.3892C15.6278 8.33807 15.2538 7.49053 14.5057 6.84659C13.767 6.20265 12.7159 5.88068 11.3523 5.88068H6.67898V13.0824ZM32.9112 0.90909V30H26.8601V0.90909H32.9112ZM47.6165 30.4261C45.41 30.4261 43.5019 29.9574 41.892 29.0199C40.2917 28.0729 39.0559 26.7566 38.1847 25.071C37.3134 23.3759 36.8778 21.411 36.8778 19.1761C36.8778 16.9223 37.3134 14.9527 38.1847 13.267C39.0559 11.572 40.2917 10.2557 41.892 9.31818C43.5019 8.37121 45.41 7.89773 47.6165 7.89773C49.8229 7.89773 51.7263 8.37121 53.3267 9.31818C54.9366 10.2557 56.1771 11.572 57.0483 13.267C57.9195 14.9527 58.3551 16.9223 58.3551 19.1761C58.3551 21.411 57.9195 23.3759 57.0483 25.071C56.1771 26.7566 54.9366 28.0729 53.3267 29.0199C51.7263 29.9574 49.8229 30.4261 47.6165 30.4261ZM47.6449 25.7386C48.6487 25.7386 49.4867 25.4545 50.1591 24.8864C50.8314 24.3087 51.3381 23.5227 51.679 22.5284C52.0294 21.5341 52.2045 20.4025 52.2045 19.1335C52.2045 17.8646 52.0294 16.733 51.679 15.7386C51.3381 14.7443 50.8314 13.9583 50.1591 13.3807C49.4867 12.803 48.6487 12.5142 47.6449 12.5142C46.6316 12.5142 45.7794 12.803 45.0881 13.3807C44.4063 13.9583 43.8902 14.7443 43.5398 15.7386C43.1989 16.733 43.0284 17.8646 43.0284 19.1335C43.0284 20.4025 43.1989 21.5341 43.5398 22.5284C43.8902 23.5227 44.4063 24.3087 45.0881 24.8864C45.7794 25.4545 46.6316 25.7386 47.6449 25.7386ZM72.1477 30.4261C69.9413 30.4261 68.0331 29.9574 66.4233 29.0199C64.8229 28.0729 63.5871 26.7566 62.7159 25.071C61.8447 23.3759 61.4091 21.411 61.4091 19.1761C61.4091 16.9223 61.8447 14.9527 62.7159 13.267C63.5871 11.572 64.8229 10.2557 66.4233 9.31818C68.0331 8.37121 69.9413 7.89773 72.1477 7.89773C74.3542 7.89773 76.2576 8.37121 77.858 9.31818C79.4678 10.2557 80.7083 11.572 81.5795 13.267C82.4508 14.9527 82.8864 16.9223 82.8864 19.1761C82.8864 21.411 82.4508 23.3759 81.5795 25.071C80.7083 26.7566 79.4678 28.0729 77.858 29.0199C76.2576 29.9574 74.3542 30.4261 72.1477 30.4261ZM72.1761 25.7386C73.1799 25.7386 74.018 25.4545 74.6903 24.8864C75.3627 24.3087 75.8693 23.5227 76.2102 22.5284C76.5606 21.5341 76.7358 20.4025 76.7358 19.1335C76.7358 17.8646 76.5606 16.733 76.2102 15.7386C75.8693 14.7443 75.3627 13.9583 74.6903 13.3807C74.018 12.803 73.1799 12.5142 72.1761 12.5142C71.1629 12.5142 70.3106 12.803 69.6193 13.3807C68.9375 13.9583 68.4214 14.7443 68.071 15.7386C67.7301 16.733 67.5597 17.8646 67.5597 19.1335C67.5597 20.4025 67.7301 21.5341 68.071 22.5284C68.4214 23.5227 68.9375 24.3087 69.6193 24.8864C70.3106 25.4545 71.1629 25.7386 72.1761 25.7386ZM94.8608 30.3551C93.2036 30.3551 91.7027 29.929 90.358 29.0767C89.0227 28.215 87.9621 26.9508 87.1761 25.2841C86.3996 23.608 86.0114 21.553 86.0114 19.1193C86.0114 16.6193 86.4138 14.5407 87.2188 12.8835C88.0237 11.2169 89.0938 9.97159 90.429 9.14773C91.7737 8.31439 93.2462 7.89773 94.8466 7.89773C96.0682 7.89773 97.0862 8.10606 97.9006 8.52273C98.7244 8.92992 99.3873 9.44129 99.8892 10.0568C100.401 10.6629 100.789 11.2595 101.054 11.8466H101.239V0.90909H107.276V30H101.31V26.5057H101.054C100.77 27.1117 100.367 27.7131 99.8466 28.3097C99.3352 28.8968 98.6676 29.3845 97.8438 29.7727C97.0294 30.161 96.035 30.3551 94.8608 30.3551ZM96.7784 25.5398C97.7538 25.5398 98.5777 25.2746 99.25 24.7443C99.9318 24.2045 100.453 23.4517 100.812 22.4858C101.182 21.5199 101.366 20.3883 101.366 19.0909C101.366 17.7936 101.187 16.6667 100.827 15.7102C100.467 14.7538 99.946 14.0152 99.2642 13.4943C98.5824 12.9735 97.7538 12.7131 96.7784 12.7131C95.7841 12.7131 94.946 12.983 94.2642 13.5227C93.5824 14.0625 93.0663 14.8106 92.7159 15.767C92.3655 16.7235 92.1903 17.8314 92.1903 19.0909C92.1903 20.3598 92.3655 21.482 92.7159 22.4574C93.0758 23.4233 93.5919 24.1809 94.2642 24.7301C94.946 25.2699 95.7841 25.5398 96.7784 25.5398Z" fill="#E53935"/>
<path d="M136.697 0.90909V30H131.384L118.728 11.6903H118.515V30H112.364V0.90909H117.762L130.319 19.2045H130.575V0.90909H136.697ZM151.608 30.4261C149.364 30.4261 147.432 29.9716 145.812 29.0625C144.203 28.1439 142.962 26.8466 142.091 25.1705C141.22 23.4848 140.784 21.4915 140.784 19.1903C140.784 16.946 141.22 14.9763 142.091 13.2812C142.962 11.5862 144.188 10.2652 145.77 9.31818C147.361 8.37121 149.226 7.89773 151.366 7.89773C152.806 7.89773 154.146 8.12973 155.386 8.59375C156.636 9.0483 157.725 9.73485 158.653 10.6534C159.591 11.572 160.32 12.7273 160.841 14.1193C161.362 15.5019 161.622 17.1212 161.622 18.9773V20.6392H143.199V16.8892H155.926C155.926 16.018 155.737 15.2462 155.358 14.5739C154.979 13.9015 154.454 13.3759 153.781 12.9972C153.118 12.6089 152.347 12.4148 151.466 12.4148C150.547 12.4148 149.733 12.6278 149.023 13.054C148.322 13.4706 147.773 14.0341 147.375 14.7443C146.977 15.4451 146.774 16.2263 146.764 17.0881V20.6534C146.764 21.733 146.963 22.6657 147.361 23.4517C147.768 24.2377 148.341 24.8438 149.08 25.2699C149.818 25.696 150.694 25.9091 151.707 25.9091C152.38 25.9091 152.995 25.8144 153.554 25.625C154.113 25.4356 154.591 25.1515 154.989 24.7727C155.386 24.3939 155.689 23.9299 155.898 23.3807L161.494 23.75C161.21 25.0947 160.628 26.2689 159.747 27.2727C158.876 28.267 157.749 29.0436 156.366 29.6023C154.993 30.1515 153.407 30.4261 151.608 30.4261ZM177.176 8.18182V12.7273H164.037V8.18182H177.176ZM167.02 2.95455H173.071V23.2955C173.071 23.8542 173.156 24.2898 173.327 24.6023C173.497 24.9053 173.734 25.1184 174.037 25.2415C174.349 25.3646 174.709 25.4261 175.116 25.4261C175.401 25.4261 175.685 25.4025 175.969 25.3551C176.253 25.2983 176.471 25.2557 176.622 25.2273L177.574 29.7301C177.271 29.8248 176.845 29.9337 176.295 30.0568C175.746 30.1894 175.079 30.2699 174.293 30.2983C172.834 30.3551 171.556 30.161 170.457 29.7159C169.368 29.2708 168.521 28.5795 167.915 27.642C167.309 26.7045 167.01 25.5208 167.02 24.0909V2.95455Z" fill="#212121"/>
</svg>
